<?xml version="1.0" encoding="utf-8"?>
<!-- Generator: Adobe Illustrator 24.0.2, SVG Export Plug-In . SVG Version: 6.00 Build 0)  -->
<svg version="1.1" id="Layer_2" xmlns="http://www.w3.org/2000/svg" xmlns:xlink="http://www.w3.org/1999/xlink" x="0px" y="0px"
	 viewBox="0 0 600 600" style="enable-background:new 0 0 600 600;" xml:space="preserve">
<style type="text/css">
	.st0{fill:url(#SVGID_1_);}
</style>
<linearGradient id="SVGID_1_" gradientUnits="userSpaceOnUse" x1="40.7136" y1="559.2863" x2="527.3964" y2="72.6035">
	<stop  offset="0" style="stop-color:#AA4E9C"/>
	<stop  offset="1" style="stop-color:#28AAE1"/>
</linearGradient>
<path class="st0" d="M300,5C137.08,5,5,137.08,5,300s132.08,295,295,295s295-132.08,295-295S462.92,5,300,5z M504.25,374.45
	c-1.85,0.05-3.68,0.04-5.49-0.05c-31.09-1.43-61.47,9.47-83.48,31.48l-2.14,2.14c-24.15,24.15-38,57.03-37.16,91.17
	c0.01,0.48,0.02,0.96,0.02,1.44c0,45.62-41.92,81.44-89.34,71.04c-34.28-7.52-57.67-38.53-56.31-73.6c0.01-0.23,0.02-0.45,0.03-0.68
	c1.44-28.99-9.25-57.26-29.77-77.78l-10.74-10.74c-22.58-22.58-53.36-34.59-85.29-34.41c-0.15,0-0.29,0-0.44,0
	c-41.15,0-74.34-34.12-72.8-75.62c1.41-38.06,32.61-68.97,70.68-70.05c0.33-0.01,0.66-0.02,0.99-0.02
	c36.62-0.56,71.64-15.03,97.53-40.93h0c20.98-20.98,32.26-50,29.98-79.58c-0.26-3.42-0.29-6.9-0.06-10.43
	c2.32-36.34,31.81-65.74,68.16-67.94c43.55-2.64,79.47,33,77.3,76.45c-1.16,23.31-13.5,43.8-31.67,56.3l-32.57-32.57
	c-5.57-5.58-14.61-5.58-20.19,0L130.78,290.78c-6.58,6.58-6.58,17.24,0,23.82l31.23,31.23l96.92,96.92l31.99,31.99
	c5.88,5.88,15.41,5.88,21.28,0l148.32-148.32c4.62-4.62,1.35-12.51-5.18-12.51h-25h-5.42h-51.9c-10.93,0-20.99,5.72-26.85,14.95
	c-9.03,14.24-24.93,23.7-43.04,23.7c-29.33,0-52.87-24.79-50.81-54.56c1.71-24.79,21.58-45.02,46.34-47.13
	c17.04-1.45,32.51,5.49,42.75,17.14c11.86,13.5,28.9,21.31,46.87,21.31c21.54,0,42.98-9.92,53.62-28.65
	c0.04-0.08,0.1-0.14,0.15-0.22c13.12-19.14,35.14-31.7,60.1-31.7c41.18,0,74.38,34.16,72.8,75.69
	C573.5,342.5,542.3,373.37,504.25,374.45z"/>
</svg>
